Coordinates
version=1
nRows=14
nColumns=40
inDegrees=yes

Units are S.I. units (second, meters, Newtons, ...)
Angles are in degrees.

endheader
time	pelvis_tilt	pelvis_list	pelvis_rotation	pelvis_tx	pelvis_ty	pelvis_tz	hip_flexion_r	hip_adduction_r	hip_rotation_r	knee_angle_r	knee_angle_r_beta	ankle_angle_r	subtalar_angle_r	mtp_angle_r	hip_flexion_l	hip_adduction_l	hip_rotation_l	knee_angle_l	knee_angle_l_beta	ankle_angle_l	subtalar_angle_l	mtp_angle_l	lumbar_extension	lumbar_bending	lumbar_rotation	arm_flex_r	arm_add_r	arm_rot_r	elbow_flex_r	pro_sup_r	wrist_flex_r	wrist_dev_r	arm_flex_l	arm_add_l	arm_rot_l	elbow_flex_l	pro_sup_l	wrist_flex_l	wrist_dev_l
     20.25000000	     -1.28840014	     -4.85242285	     -3.92449417	      0.84124886	      0.92499020	      0.54199196	     10.83776028	      5.79959390	    -10.27438989	     23.67670377	     23.67670377	     15.83570402	     -4.48498065	     -0.76813129	     17.07865339	    -17.62506059	     -3.02737746	     53.05421767	     53.05421767	     19.43721687	    -19.54924666	     22.51972476	     -9.58343540	      7.75036760	      2.75416051	     19.78606202	    -18.22417186	    -10.73387574	     48.01654422	     44.88859858	      0.00000000	      0.00000000	     12.23247278	     -8.08973349	     -1.58156339	     49.26147789	     45.41379045	      0.00000000	      0.00000000
     20.26978571	     -1.06719477	     -4.79868094	     -3.25015073	      0.83919515	      0.92391302	      0.54326894	     10.72046433	      5.76616251	    -10.51969072	     24.42688720	     24.42688720	     16.36664790	     -5.15633435	     -0.92048962	     18.59869658	    -17.42666995	     -2.73801984	     52.24165301	     52.24165301	     19.50658773	    -19.55592488	     22.37407021	     -9.85053167	      7.48446732	      2.36679764	     21.86825854	    -17.76405052	    -10.71735815	     50.04864508	     44.83560115	      0.00000000	      0.00000000	      9.75251399	     -8.11634464	     -1.46055243	     46.79799450	     45.37825892	      0.00000000	      0.00000000
     20.28957143	     -0.83973126	     -4.80298567	     -2.59713180	      0.83705041	      0.92269102	      0.54454318	     10.58737625	      5.83059403	    -10.66234779	     25.17684743	     25.17684743	     17.00805566	     -5.92488662	     -0.54198023	     20.05445180	    -17.23190596	     -2.46653193	     51.27557286	     51.27557286	     19.53280992	    -19.54869229	     22.28513223	    -10.15520534	      7.30165663	      2.87263539	     22.86268850	    -18.18473180	    -10.19871484	     53.83900361	     44.73936908	      0.00000000	      0.00000000	      8.74813431	     -7.38501982	     -2.14058439	     41.28002205	     45.50712934	      0.00000000	      0.00000000
     20.30935714	     -0.67351455	     -4.75584563	     -1.95621455	      0.83470279	      0.92117169	      0.54570461	     10.59716489	      5.81944873	    -10.86822991	     26.03029062	     26.03029062	     17.51302623	     -6.73411747	     -0.65287105	     21.49688646	    -16.90727362	     -2.19225281	     50.18337458	     50.18337458	     19.52115681	    -19.55124141	     22.20253611	    -10.51554501	      7.04623228	      2.62965346	     25.01107963	    -17.76172171	    -10.27390580	     55.98993706	     44.68895520	      0.00000000	      0.00000000	      6.35789248	     -7.53503323	     -2.15163839	     38.88600959	     45.48826117	      0.00000000	      0.00000000
     20.32914286	     -0.51977053	     -4.77776094	     -1.32345919	      0.83237134	      0.91955126	      0.54677055	     10.61298219	      5.91433208	    -10.94275415	     26.88336443	     26.88336443	     18.20603092	     -7.58668871	     -0.20551760	     22.87774713	    -16.60022256	     -1.85492744	     49.02194088	     49.02194088	     19.32040988	    -19.53953430	     22.18549357	    -10.79699065	      6.86813803	      3.14017857	     26.15267298	    -18.19125350	    -10.02534475	     59.73789638	     44.61760932	      0.00000000	      0.00000000	      5.53488282	     -7.10617184	     -2.99241301	     33.59818318	     45.65150387	      0.00000000	      0.00000000
     20.34892857	     -0.43651895	     -4.76933122	     -0.72766828	      0.82996392	      0.91766086	      0.54768536	     10.76975351	      5.94481096	    -11.09516279	     27.82744744	     27.82744744	     18.69096824	     -8.43347176	     -0.30755241	     24.25735259	    -16.19384365	     -1.46107541	     47.86601693	     47.86601693	     19.17020410	    -19.52193091	     22.14456243	    -11.05710050	      6.61042372	      2.94870890	     28.30250775	    -17.75944202	    -10.15981214	     61.89286904	     44.57168113	      0.00000000	      0.00000000	      3.26374734	     -7.38670230	     -3.13099589	     31.68426433	     45.64890481	      0.00000000	      0.00000000
     20.36871429	     -0.40365017	     -4.75339226	     -0.13195655	      0.82743151	      0.91581294	      0.54822157	     10.92873702	      5.97412689	    -11.17300919	     28.64071974	     28.64071974	     19.22912974	     -9.27518087	     -0.36413532	     25.63571358	    -15.71846135	     -1.02525393	     46.71283489	     46.71283489	     18.81292847	    -19.50030766	     22.14539959	    -11.36675998	      6.48368089	      2.93583439	     30.26868416	    -17.58103052	    -10.18882698	     64.01592817	     44.52059465	      0.00000000	      0.00000000	      1.28520125	     -7.63134064	     -3.27419835	     29.89989656	     45.65007578	      0.00000000	      0.00000000
     20.38850000	     -0.46935656	     -4.74166823	      0.43320546	      0.82496116	      0.91400595	      0.54845542	     11.14249822	      5.99709389	    -11.25796659	     29.34339199	     29.34339199	     19.65557966	    -10.12788376	     -0.27153263	     27.00684477	    -15.16367090	     -0.48053424	     45.52924392	     45.52924392	     18.45332458	    -19.48192019	     22.01931792	    -11.56593257	      6.32919045	      2.89015836	     32.00936189	    -17.36356993	    -10.08925352	     66.52059633	     44.45426037	      0.00000000	      0.00000000	     -0.60019317	     -7.91353014	     -3.46676661	     28.11274187	     45.66345345	      0.00000000	      0.00000000
     20.40828571	     -0.53006136	     -4.72061197	      1.00059804	      0.82259436	      0.91258171	      0.54833467	     11.18894902	      5.98073676	    -11.45890516	     29.75512996	     29.75512996	     19.99654763	    -10.69634072	     -0.27106451	     28.25336809	    -14.52907220	      0.14987282	     44.29908002	     44.29908002	     18.05841529	    -19.44081744	     22.03026578	    -11.72505920	      6.18208929	      3.32090096	     33.70535778	    -17.66983120	    -10.18636902	     68.03400620	     44.42021360	      0.00000000	      0.00000000	     -2.27744556	     -8.17296854	     -3.58243877	     27.12514321	     45.65997049	      0.00000000	      0.00000000
     20.42807143	     -0.71362384	     -4.69201936	      1.57867240	      0.82030046	      0.91127971	      0.54791811	     11.36705309	      5.97247795	    -11.54195563	     30.15950009	     30.15950009	     20.36976662	    -11.47675841	      0.12590141	     29.50481691	    -13.85741351	      0.78585303	     42.95573647	     42.95573647	     17.27797294	    -19.37516273	     21.27689955	    -11.86074124	      6.05004888	      3.12963961	     34.84806007	    -17.43271789	     -9.79968932	     72.01947234	     44.30671856	      0.00000000	      0.00000000	     -4.05307587	     -8.45953112	     -3.89512066	     25.81102247	     45.70292626	      0.00000000	      0.00000000
     20.44785714	     -0.91324447	     -4.58102990	      2.12903620	      0.81820043	      0.91047900	      0.54706513	     11.41550671	      5.82777905	    -11.68720937	     30.34607028	     30.34607028	     20.76940728	    -11.88258911	      0.54977064	     30.54347020	    -13.05606650	      1.42144538	     41.40385963	     41.40385963	     16.26810528	    -19.29697409	     20.07321713	    -11.92532989	      5.84653555	      3.65679679	     35.57842650	    -17.97313797	     -9.81107886	     75.56235958	     44.25501845	      0.00000000	      0.00000000	     -5.52583791	     -8.71875434	     -4.31476677	     25.32516611	     45.77509845	      0.00000000	      0.00000000
     20.46764286	     -1.18789895	     -4.45317478	      2.69170132	      0.81627440	      0.91016841	      0.54576742	     11.33528168	      5.63690850	    -11.94769192	     30.15916698	     30.15916698	     20.90765075	    -12.18879187	      0.61434881	     31.53173989	    -12.16729393	      2.15112383	     39.79772408	     39.79772408	     15.67247417	    -19.14349469	     20.16307069	    -11.77656474	      5.65482637	      3.93821056	     37.04821327	    -18.18621555	     -9.95805491	     76.67687053	     44.23519921	      0.00000000	      0.00000000	     -6.93431542	     -8.98377180	     -4.38446272	     24.79004911	     45.76508435	      0.00000000	      0.00000000
     20.48742857	     -1.40718699	     -4.25476530	      3.28607714	      0.81465434	      0.91038651	      0.54419431	     11.05631549	      5.36709090	    -12.21883479	     29.77276462	     29.77276462	     21.01966284	    -12.36729647	      0.70522426	     32.18480041	    -11.22869972	      2.80993127	     37.88403596	     37.88403596	     14.64342720	    -18.93816536	     19.15937882	    -11.76391645	      5.39554795	      3.43384198	     38.23236674	    -17.47523795	     -9.65348054	     79.79475050	     44.14875047	      0.00000000	      0.00000000	     -8.78467667	     -9.20480279	     -4.50087265	     24.58929542	     45.75673004	      0.00000000	      0.00000000
     20.50721429	     -1.68355311	     -4.12775597	      3.82200536	      0.81336402	      0.91099074	      0.54235996	     10.64374905	      5.16521337	    -12.55833291	     29.06094457	     29.06094457	     20.97825652	    -12.33028744	      0.62241366	     32.58749997	    -10.46848681	      3.27142894	     35.59436632	     35.59436632	     12.81219736	    -18.62104799	     16.00952370	    -11.67172640	      5.16885306	      3.98762065	     38.67244405	    -18.18902840	     -9.51730190	     83.07357330	     44.11531353	      0.00000000	      0.00000000	    -10.30946466	     -9.43552648	     -4.73746131	     25.78866961	     45.78186238	      0.00000000	      0.00000000
